<svg xmlns="http://www.w3.org/2000/svg" xmlns:xlink="http://www.w3.org/1999/xlink" fill="none" version="1.1" width="27.755369186401367" height="22.622161865234375" viewBox="0 0 27.755369186401367 22.622161865234375"><path d="M3.8578,11.9666C3.8578,11.9666,12.6622,20.771,12.6622,20.771C12.6622,20.771,11.3111,22.1222,11.3111,22.1222C11.3111,22.1222,0.5,11.3111,0.5,11.3111C0.5,11.3111,11.3111,0.5,11.3111,0.5C11.3111,0.5,12.6622,1.85116,12.6622,1.85116C12.6622,1.85116,4.45789,10.05549,4.45789,10.05549C4.45789,10.05549,27.2554,10.05549,27.2554,10.05549C27.2554,10.05549,27.2554,11.9666,27.2554,11.9666C27.2554,11.9666,3.8578,11.9666,3.8578,11.9666C3.8578,11.9666,3.8578,11.9666,3.8578,11.9666Z" fill="#FFFFFF" fill-opacity="1"/></svg>